<?xml version="1.0" encoding="utf-8"?>
<!DOCTYPE svg PUBLIC "-//W3C//DTD SVG 1.0//EN" "http://www.w3.org/TR/2001/REC-SVG-20010904/DTD/svg10.dtd">
<svg version="1.0" xmlns="http://www.w3.org/2000/svg" width="68px" height="18px" viewBox="0 0 68 18" preserveAspectRatio="xMidYMid meet">
 <g fill="#114320">
  <path d="M6.3 14.3 c-3.5 -2.1 -6.3 -4.2 -6.3 -4.9 0 -0.6 2.7 -3 6 -5.3 6.4 -4.5 8.3 -4.1 2.6 0.6 l-3.5 2.8 24.7 0 c23.6 0 38.2 0.9 38.2 2.3 0 0.4 -7.3 0.3 -16.3 -0.1 -9 -0.5 -23.3 -0.5 -31.8 0 l-15.4 0.8 5.3 2.9 c5 2.8 6.6 4.6 4 4.6 -0.7 0 -4.1 -1.7 -7.5 -3.7z"/>
 </g>
</svg>